<svg width="48" height="48" viewBox="0 0 48 48" fill="none" xmlns="http://www.w3.org/2000/svg">
<path fill-rule="evenodd" clip-rule="evenodd" d="M37.8954 14.7608C38.3691 14.7365 38.8265 14.9377 39.1286 15.3035C41.0983 17.6878 43.162 21.1603 44.551 24.5228C45.247 26.2075 45.7935 27.9122 46.0644 29.4761C46.3288 31.0027 46.3638 32.5789 45.8406 33.8871C44.0746 38.3019 40.1921 39.5393 37.9722 39.5393C36.0108 39.5393 31.7967 38.4016 30.0924 33.8567C29.5827 32.4975 29.7178 30.863 30.0627 29.3246C30.4186 27.7371 31.0559 26.008 31.8029 24.3199C33.2984 20.9399 35.3167 17.5378 36.7241 15.4267C36.9873 15.032 37.4216 14.7851 37.8954 14.7608ZM38.0765 18.8858C36.9147 20.7849 35.5889 23.1775 34.5463 25.5338C33.8412 27.1274 33.2866 28.6581 32.99 29.9808C32.6825 31.3526 32.7047 32.2788 32.9014 32.8033C34.0226 35.7933 36.7941 36.5393 37.9722 36.5393C39.285 36.5393 41.8529 35.7785 43.0551 32.7729C43.2739 32.226 43.3365 31.3049 43.1084 29.988C42.8868 28.7084 42.4208 27.2234 41.7783 25.6682C40.7944 23.2864 39.4436 20.8516 38.0765 18.8858Z" fill="#1B344B"/>
<path fill-rule="evenodd" clip-rule="evenodd" d="M29.9951 33.3301C29.9951 32.5017 30.6667 31.8301 31.4951 31.8301H44.4457C45.2741 31.8301 45.9457 32.5017 45.9457 33.3301C45.9457 34.1585 45.2741 34.8301 44.4457 34.8301H31.4951C30.6667 34.8301 29.9951 34.1585 29.9951 33.3301Z" fill="#1B344B"/>
<path fill-rule="evenodd" clip-rule="evenodd" d="M33.2881 35.6826C33.2881 34.8542 33.9597 34.1826 34.7881 34.1826H41.852C42.6805 34.1826 43.352 34.8542 43.352 35.6826C43.352 36.511 42.6805 37.1826 41.852 37.1826H34.7881C33.9597 37.1826 33.2881 36.511 33.2881 35.6826Z" fill="#1B344B"/>
<path fill-rule="evenodd" clip-rule="evenodd" d="M9.63952 14.7608C10.1133 14.7365 10.5706 14.9377 10.8728 15.3035C12.8425 17.6878 14.9062 21.1603 16.2952 24.5228C16.9911 26.2075 17.5377 27.9122 17.8085 29.4761C18.073 31.0027 18.108 32.5789 17.5847 33.8871C15.8188 38.3019 11.9362 39.5393 9.71633 39.5393C7.75494 39.5393 3.54088 38.4016 1.83655 33.8567C1.32685 32.4975 1.46191 30.863 1.80681 29.3246C2.16269 27.7371 2.80009 26.008 3.547 24.3199C5.0425 20.9399 7.06087 17.5378 8.46826 15.4267C8.7314 15.032 9.16576 14.7851 9.63952 14.7608ZM9.82066 18.8858C8.65882 20.7849 7.333 23.1775 6.29046 25.5338C5.58534 27.1274 5.0307 28.6581 4.73414 29.9808C4.42661 31.3526 4.44884 32.2788 4.64554 32.8033C5.76678 35.7933 8.53819 36.5393 9.71633 36.5393C11.0292 36.5393 13.5971 35.7785 14.7993 32.7729C15.018 32.226 15.0807 31.3049 14.8526 29.988C14.6309 28.7084 14.1649 27.2234 13.5224 25.6682C12.5385 23.2864 11.1877 20.8516 9.82066 18.8858Z" fill="#1B344B"/>
<path fill-rule="evenodd" clip-rule="evenodd" d="M1.73926 33.3301C1.73926 32.5017 2.41083 31.8301 3.23926 31.8301H16.1898C17.0183 31.8301 17.6898 32.5017 17.6898 33.3301C17.6898 34.1585 17.0183 34.8301 16.1898 34.8301H3.23926C2.41083 34.8301 1.73926 34.1585 1.73926 33.3301Z" fill="#1B344B"/>
<path fill-rule="evenodd" clip-rule="evenodd" d="M5.03223 35.6826C5.03223 34.8542 5.7038 34.1826 6.53223 34.1826H13.5962C14.4246 34.1826 15.0962 34.8542 15.0962 35.6826C15.0962 36.511 14.4246 37.1826 13.5962 37.1826H6.53223C5.7038 37.1826 5.03223 36.511 5.03223 35.6826Z" fill="#1B344B"/>
<path fill-rule="evenodd" clip-rule="evenodd" d="M9.87305 46C9.87305 45.1716 10.5446 44.5 11.373 44.5H37.2742C38.1026 44.5 38.7742 45.1716 38.7742 46C38.7742 46.8284 38.1026 47.5 37.2742 47.5H11.373C10.5446 47.5 9.87305 46.8284 9.87305 46Z" fill="#1B344B"/>
<path fill-rule="evenodd" clip-rule="evenodd" d="M16.1504 43C16.1504 42.1716 16.822 41.5 17.6504 41.5H30.0123C30.8407 41.5 31.5123 42.1716 31.5123 43C31.5123 43.8284 30.8407 44.5 30.0123 44.5H17.6504C16.822 44.5 16.1504 43.8284 16.1504 43Z" fill="#1B344B"/>
<path fill-rule="evenodd" clip-rule="evenodd" d="M23.9297 0.5C24.7581 0.5 25.4297 1.17157 25.4297 2L25.4297 42.814C25.4297 43.6424 24.7581 44.314 23.9297 44.314C23.1013 44.314 22.4297 43.6424 22.4297 42.814L22.4297 2C22.4297 1.17157 23.1013 0.5 23.9297 0.5Z" fill="#1B344B"/>
<path fill-rule="evenodd" clip-rule="evenodd" d="M16.0861 5.66016C16.0861 4.83173 16.7577 4.16016 17.5861 4.16016H29.948C30.7765 4.16016 31.448 4.83173 31.448 5.66016C31.448 6.48858 30.7765 7.16016 29.948 7.16016H17.5861C16.7577 7.16016 16.0861 6.48858 16.0861 5.66016ZM13.7315 12.7241C13.7315 11.8957 14.403 11.2241 15.2315 11.2241H32.8913C33.7198 11.2241 34.3913 11.8957 34.3913 12.7241V14.7561H44.8608C45.6893 14.7561 46.3608 15.4277 46.3608 16.2561C46.3608 17.0845 45.6893 17.7561 44.8608 17.7561H32.8913C32.0629 17.7561 31.3913 17.0845 31.3913 16.2561V14.2241H16.7315V16.2561C16.7315 17.0845 16.0599 17.7561 15.2315 17.7561H4.04688C3.21845 17.7561 2.54688 17.0845 2.54688 16.2561C2.54688 15.4277 3.21845 14.7561 4.04688 14.7561H13.7315V12.7241Z" fill="#1B344B"/>
</svg>
